#!OML:ASF F:\VICON\USERDATA\INSTALL\Justin_Nancy\Justin_Nancy.ASF
:FULLY-SPECIFIED
:DEGREES
16
root 2.02197 17.5771 -27.5755 -3.48803 -0.0519022 -1.13902
lowerback 8.06106 -1.17025 -0.974906
upperback 0.785989 -1.50938 3.51202
thorax -3.5859 -0.713775 4.36759
lowerneck -14.8366 -3.12909 -9.67385
upperneck 19.2834 -3.25664 5.75448
head 8.72807 -1.65126 3.17225
rclavicle -1.91082e-014 4.53229e-014
rhumerus -39.226 -22.9613 -69.3146
rradius 21.9698
rwrist 19.2281
rhand -16.9695 4.66806
rfingers 7.12502
rthumb 9.26475 -25.1084
lclavicle -1.91082e-014 4.53229e-014
lhumerus -27.241 9.59715 84.3852
lradius 30.8162
lwrist -5.18048
lhand -20.3954 13.096
lfingers 7.12502
lthumb 5.95806 42.9922
rfemur -13.4109 5.57654 26.518
rtibia 23.2476
rfoot -2.18409 -3.02568
rtoes 5.24217
lfemur -7.88327 -1.24065 -17.7488
ltibia 64.104
lfoot 14.4357 -9.62725
ltoes -1.73593
17
root 2.01057 17.5886 -27.4083 -3.60832 -0.490045 -1.10259
lowerback 8.12148 -1.04012 -0.958498
upperback 0.808047 -1.33792 3.42359
thorax -3.61325 -0.629069 4.24839
lowerneck -14.5766 -3.03654 -9.69466
upperneck 19.3064 -3.19774 5.9698
head 8.68619 -1.60722 3.259
rclavicle 1.65985e-014 3.18055e-015
rhumerus -38.5542 -22.041 -70.2879
rradius 22.5327
rwrist 18.3542
rhand -16.9639 2.81877
rfingers 7.12502
rthumb 9.27014 -26.9574
lclavicle 1.65985e-014 3.18055e-015
lhumerus -27.5126 9.97642 84.2602
lradius 30.8494
lwrist -6.2603
lhand -16.5858 29.5151
lfingers 7.12502
lthumb 9.63496 59.2748
rfemur -12.529 5.99987 26.6677
rtibia 23.0635
rfoot -2.65707 -3.18196
rtoes 5.82116
lfemur -9.24344 -0.624939 -17.7427
ltibia 65.4826
lfoot 11.2976 -8.48912
ltoes -6.62372
18
root 1.99564 17.6009 -27.2345 -3.75641 -0.418413 -1.30423
lowerback 8.20013 -1.0225 -0.684823
upperback 0.917251 -1.29405 3.35291
thorax -3.55491 -0.613597 4.01397
lowerneck -14.6666 -3.06091 -9.45796
upperneck 19.1281 -3.27998 5.99956
head 8.64452 -1.62194 3.21692
rclavicle -1.00138e-014 1.66979e-014
rhumerus -37.8029 -22.2152 -70.647
rradius 22.4547
rwrist 18.6662
rhand -16.9595 4.79844
rfingers 7.12502
rthumb 9.27439 -24.9776
lclavicle -1.00138e-014 1.66979e-014
lhumerus -27.5481 10.2039 84.1414
lradius 31.0842
lwrist -8.366
lhand -13.8555 42.174
lfingers 7.12502
lthumb 12.2684 71.7941
rfemur -11.5405 6.14665 27.0349
rtibia 22.8856
rfoot -3.21505 -3.55359
rtoes 6.87194
lfemur -10.6413 -0.464777 -17.4688
ltibia 66.6992
lfoot 8.87422 -7.62867
ltoes -11.8054
19
root 1.98185 17.609 -27.0579 -3.78483 -0.29914 -1.59421
lowerback 7.97063 -1.04222 -0.352895
upperback 1.02235 -1.29678 3.3473
thorax -3.32498 -0.623431 3.81111
lowerneck -14.3344 -3.08566 -9.17867
upperneck 18.6172 -3.36357 5.85255
head 8.41079 -1.65557 3.1049
rclavicle -1.46604e-014 1.59028e-015
rhumerus -36.9973 -21.6564 -71.4276
rradius 22.9787
rwrist 17.9009
rhand -17.1436 6.32947
rfingers 7.12502
rthumb 9.09681 -23.4544
lclavicle -1.46604e-014 1.59028e-015
lhumerus -27.6111 10.3176 84.1337
lradius 30.7655
lwrist -8.75536
lhand -16.2257 36.0726
lfingers 7.12502
lthumb 9.98245 65.8159
rfemur -10.6575 6.06222 27.5027
rtibia 22.6293
rfoot -3.69518 -3.75222
rtoes 6.59831
lfemur -12.1778 -0.369749 -17.1167
ltibia 67.748
lfoot 7.18681 -6.53598
ltoes -15.2273
20
root 1.97339 17.6135 -26.8864 -3.79989 -0.384347 -1.77596
lowerback 7.82665 -1.05424 -0.108793
upperback 1.0546 -1.29467 3.36039
thorax -3.21647 -0.626842 3.68145
lowerneck -14.323 -2.93395 -9.46812
upperneck 19.0514 -3.19054 6.26855
head 8.5515 -1.5577 3.32263
rclavicle -8.12532e-015 2.22639e-014
rhumerus -36.3362 -21.3409 -71.8099
rradius 22.9845
rwrist 18.2649
rhand -17.9471 9.48795
rfingers 7.12502
rthumb 8.32143 -20.3281
lclavicle -8.12532e-015 2.22639e-014
lhumerus -28.0364 9.95205 84.4209
lradius 30.5719
lwrist -6.90391
lhand -11.6286 44.8362
lfingers 7.12502
lthumb 14.4149 74.3157
rfemur -9.84323 5.91389 27.8223
rtibia 22.3498
rfoot -4.24856 -3.67209
rtoes 5.95962
lfemur -13.6635 -0.190114 -16.9625
ltibia 68.5799
lfoot 6.27403 -5.75085
ltoes -14.6398
21
root 1.96093 17.6209 -26.718 -3.82125 -0.65436 -1.88889
lowerback 7.95114 -0.974687 0.00721263
upperback 0.979845 -1.17439 3.35674
thorax -3.37367 -0.566107 3.60446
lowerneck -14.1366 -2.96519 -9.55661
upperneck 18.9837 -3.25264 6.37747
head 8.50329 -1.58479 3.36722
rclavicle -1.08089e-014 2.70347e-014
rhumerus -35.8091 -20.8257 -72.2187
rradius 23.0631
rwrist 18.275
rhand -18.1803 10.082
rfingers 7.12502
rthumb 8.09632 -19.7429
lclavicle -1.08089e-014 2.70347e-014
lhumerus -28.6282 9.49406 84.6418
lradius 30.533
lwrist -5.53746
lhand -14.2798 34.4694
lfingers 7.12502
lthumb 11.8593 64.1135
rfemur -9.09854 5.98507 28.0818
rtibia 22.1675
rfoot -4.79195 -3.64174
rtoes 4.92615
lfemur -15.0653 0.169785 -16.8499
ltibia 69.1831
lfoot 5.67109 -5.28151
ltoes -12.1808
22
root 1.94991 17.625 -26.5491 -3.88872 -0.902588 -1.89696
lowerback 8.08116 -0.844419 0.0355633
upperback 0.992426 -0.998238 3.29981
thorax -3.4456 -0.478484 3.51322
lowerneck -14.0327 -3.02986 -9.49657
upperneck 18.8141 -3.36221 6.3868
head 8.43583 -1.63115 3.34536
rclavicle 7.55382e-015 -3.18055e-015
rhumerus -35.2069 -19.9636 -72.8986
rradius 23.5912
rwrist 17.2067
rhand -17.5163 9.72967
rfingers 7.12502
rthumb 8.7371 -20.0695
lclavicle 7.55382e-015 -3.18055e-015
lhumerus -28.8726 9.34177 84.7485
lradius 30.1614
lwrist -5.66292
lhand -15.08 31.1275
lfingers 7.12502
lthumb 11.0876 60.8146
rfemur -8.32487 6.01427 28.2212
rtibia 22.0971
rfoot -5.25797 -3.76248
rtoes 3.54211
lfemur -16.3193 0.476156 -16.8738
ltibia 69.5409
lfoot 4.84675 -4.53887
ltoes -10.763
